<svg width="32" height="18" viewBox="0 0 32 18" fill="none" xmlns="http://www.w3.org/2000/svg">
<path d="M1.28 17C1.12 17 0.976 16.944 0.848 16.832C0.736 16.72 0.68 16.576 0.68 16.4V0.8C0.68 0.623999 0.736 0.479999 0.848 0.368C0.976 0.255999 1.12 0.199999 1.28 0.199999H3.872C4.128 0.199999 4.32 0.271999 4.448 0.415999C4.592 0.543999 4.68 0.647999 4.712 0.727999L8.936 8.312L13.16 0.727999C13.208 0.647999 13.288 0.543999 13.4 0.415999C13.528 0.271999 13.728 0.199999 14 0.199999H16.568C16.744 0.199999 16.888 0.255999 17 0.368C17.128 0.479999 17.192 0.623999 17.192 0.8V16.4C17.192 16.576 17.128 16.72 17 16.832C16.888 16.944 16.744 17 16.568 17H13.712C13.536 17 13.384 16.944 13.256 16.832C13.144 16.72 13.088 16.576 13.088 16.4V7.4L10.376 12.416C10.312 12.56 10.216 12.688 10.088 12.8C9.96 12.912 9.784 12.968 9.56 12.968H8.312C8.088 12.968 7.912 12.912 7.784 12.8C7.656 12.688 7.552 12.56 7.472 12.416L4.76 7.4V16.4C4.76 16.576 4.704 16.72 4.592 16.832C4.48 16.944 4.336 17 4.16 17H1.28ZM25.4036 17.24C24.3636 17.24 23.4756 17.128 22.7396 16.904C22.0196 16.664 21.4276 16.376 20.9636 16.04C20.5156 15.704 20.1796 15.36 19.9556 15.008C19.7316 14.64 19.6116 14.328 19.5956 14.072C19.5796 13.896 19.6356 13.752 19.7636 13.64C19.8916 13.512 20.0276 13.448 20.1716 13.448H22.9076C22.9556 13.448 22.9956 13.456 23.0276 13.472C23.0596 13.488 23.1076 13.52 23.1716 13.568C23.3796 13.68 23.5876 13.824 23.7956 14C24.0036 14.16 24.2436 14.304 24.5156 14.432C24.7876 14.56 25.1156 14.624 25.4996 14.624C25.9476 14.624 26.3236 14.536 26.6276 14.36C26.9316 14.184 27.0836 13.92 27.0836 13.568C27.0836 13.312 27.0116 13.104 26.8676 12.944C26.7236 12.768 26.4276 12.6 25.9796 12.44C25.5476 12.28 24.8916 12.12 24.0116 11.96C23.1796 11.768 22.4516 11.52 21.8276 11.216C21.2036 10.896 20.7236 10.488 20.3876 9.992C20.0516 9.48 19.8836 8.864 19.8836 8.144C19.8836 7.504 20.0916 6.888 20.5076 6.296C20.9236 5.704 21.5316 5.224 22.3316 4.856C23.1316 4.472 24.1156 4.28 25.2836 4.28C26.2116 4.28 27.0116 4.392 27.6836 4.616C28.3716 4.824 28.9476 5.096 29.4116 5.432C29.8916 5.768 30.2516 6.112 30.4916 6.464C30.7316 6.816 30.8596 7.136 30.8756 7.424C30.8916 7.584 30.8436 7.728 30.7316 7.856C30.6196 7.968 30.4916 8.024 30.3476 8.024H27.8516C27.7876 8.024 27.7236 8.016 27.6596 8C27.5956 7.968 27.5396 7.936 27.4916 7.904C27.2996 7.808 27.1076 7.68 26.9156 7.52C26.7236 7.36 26.4996 7.216 26.2436 7.088C25.9876 6.96 25.6676 6.896 25.2836 6.896C24.8516 6.896 24.5156 6.992 24.2756 7.184C24.0356 7.376 23.9156 7.624 23.9156 7.928C23.9156 8.136 23.9796 8.328 24.1076 8.504C24.2516 8.68 24.5316 8.84 24.9476 8.984C25.3796 9.128 26.0436 9.288 26.9396 9.464C28.0436 9.64 28.9236 9.928 29.5796 10.328C30.2356 10.712 30.6996 11.168 30.9716 11.696C31.2436 12.208 31.3796 12.752 31.3796 13.328C31.3796 14.096 31.1476 14.776 30.6836 15.368C30.2356 15.96 29.5636 16.424 28.6676 16.76C27.7716 17.08 26.6836 17.24 25.4036 17.24Z" fill="url(#paint0_linear_4_37)"/>
<defs>
<linearGradient id="paint0_linear_4_37" x1="33" y1="9" x2="-1" y2="9" gradientUnits="userSpaceOnUse">
<stop stop-color="#363333"/>
<stop offset="1" stop-color="#240B3F"/>
</linearGradient>
</defs>
</svg>
